<svg width="54" height="54" viewBox="0 0 54 54" fill="none" xmlns="http://www.w3.org/2000/svg">
<g id="Instagram">
<circle id="Ellipse 2" cx="27" cy="27" r="27" fill="#BB346C"/>
<g id="Group">
<path id="Vector" fill-rule="evenodd" clip-rule="evenodd" d="M20.4036 11.096C22.1098 11.0175 22.6538 11 27 11C31.3462 11 31.8902 11.0189 33.5949 11.096C35.2996 11.1731 36.4633 11.4451 37.4815 11.8393C38.5476 12.2422 39.5149 12.872 40.3149 13.6865C41.1295 14.4851 41.7578 15.4509 42.1593 16.5185C42.5549 17.5367 42.8255 18.7004 42.904 20.4022C42.9825 22.1113 43 22.6553 43 27C43 31.3462 42.9811 31.8902 42.904 33.5964C42.8269 35.2982 42.5549 36.4618 42.1593 37.48C41.7578 38.5478 41.1284 39.5152 40.3149 40.3149C39.5149 41.1295 38.5476 41.7578 37.4815 42.1593C36.4633 42.5549 35.2996 42.8255 33.5978 42.904C31.8902 42.9825 31.3462 43 27 43C22.6538 43 22.1098 42.9811 20.4036 42.904C18.7018 42.8269 17.5382 42.5549 16.52 42.1593C15.4522 41.7578 14.4848 41.1284 13.6851 40.3149C12.8711 39.5159 12.2412 38.5489 11.8393 37.4815C11.4451 36.4633 11.1745 35.2996 11.096 33.5978C11.0175 31.8887 11 31.3447 11 27C11 22.6538 11.0189 22.1098 11.096 20.4051C11.1731 18.7004 11.4451 17.5367 11.8393 16.5185C12.2418 15.451 12.8722 14.4841 13.6865 13.6851C14.4851 12.8713 15.4516 12.2414 16.5185 11.8393C17.5367 11.4451 18.7004 11.1745 20.4022 11.096H20.4036ZM33.4655 13.976C31.7782 13.8989 31.272 13.8829 27 13.8829C22.728 13.8829 22.2218 13.8989 20.5345 13.976C18.9738 14.0473 18.1273 14.3076 17.5629 14.5273C16.8167 14.8182 16.2829 15.1629 15.7229 15.7229C15.1921 16.2393 14.7835 16.868 14.5273 17.5629C14.3076 18.1273 14.0473 18.9738 13.976 20.5345C13.8989 22.2218 13.8829 22.728 13.8829 27C13.8829 31.272 13.8989 31.7782 13.976 33.4655C14.0473 35.0262 14.3076 35.8727 14.5273 36.4371C14.7833 37.1309 15.192 37.7607 15.7229 38.2771C16.2393 38.808 16.8691 39.2167 17.5629 39.4727C18.1273 39.6924 18.9738 39.9527 20.5345 40.024C22.2218 40.1011 22.7265 40.1171 27 40.1171C31.2735 40.1171 31.7782 40.1011 33.4655 40.024C35.0262 39.9527 35.8727 39.6924 36.4371 39.4727C37.1833 39.1818 37.7171 38.8371 38.2771 38.2771C38.808 37.7607 39.2167 37.1309 39.4727 36.4371C39.6924 35.8727 39.9527 35.0262 40.024 33.4655C40.1011 31.7782 40.1171 31.272 40.1171 27C40.1171 22.728 40.1011 22.2218 40.024 20.5345C39.9527 18.9738 39.6924 18.1273 39.4727 17.5629C39.1818 16.8167 38.8371 16.2829 38.2771 15.7229C37.7606 15.1921 37.1319 14.7836 36.4371 14.5273C35.8727 14.3076 35.0262 14.0473 33.4655 13.976ZM24.9564 31.9324C26.0977 32.4075 27.3686 32.4716 28.5519 32.1138C29.7352 31.756 30.7577 30.9984 31.4445 29.9705C32.1314 28.9426 32.4401 27.7082 32.3179 26.478C32.1957 25.2478 31.6502 24.0981 30.7745 23.2255C30.2163 22.6676 29.5414 22.2405 28.7983 21.9748C28.0552 21.7091 27.2624 21.6114 26.4771 21.6889C25.6917 21.7664 24.9333 22.017 24.2564 22.4227C23.5796 22.8285 23.0011 23.3793 22.5626 24.0354C22.1242 24.6916 21.8366 25.4368 21.7208 26.2174C21.6049 26.998 21.6635 27.7946 21.8924 28.5498C22.1214 29.3051 22.5149 30.0002 23.0447 30.5851C23.5745 31.1699 24.2274 31.6301 24.9564 31.9324ZM21.1847 21.1847C21.9484 20.4211 22.855 19.8153 23.8528 19.402C24.8506 18.9887 25.92 18.776 27 18.776C28.08 18.776 29.1494 18.9887 30.1472 19.402C31.145 19.8153 32.0516 20.4211 32.8153 21.1847C33.5789 21.9484 34.1847 22.855 34.598 23.8528C35.0113 24.8506 35.224 25.92 35.224 27C35.224 28.08 35.0113 29.1494 34.598 30.1472C34.1847 31.145 33.5789 32.0516 32.8153 32.8153C31.273 34.3576 29.1812 35.224 27 35.224C24.8188 35.224 22.727 34.3576 21.1847 32.8153C19.6424 31.273 18.776 29.1812 18.776 27C18.776 24.8188 19.6424 22.727 21.1847 21.1847ZM37.048 20.0007C37.2372 19.8222 37.3887 19.6075 37.4935 19.3694C37.5983 19.1313 37.6543 18.8746 37.6581 18.6144C37.6619 18.3543 37.6134 18.0961 37.5156 17.855C37.4178 17.6139 37.2726 17.3949 37.0887 17.211C36.9047 17.027 36.6857 16.8818 36.4446 16.784C36.2036 16.6862 35.9453 16.6378 35.6852 16.6416C35.4251 16.6454 35.1683 16.7013 34.9302 16.8061C34.6921 16.9109 34.4774 17.0624 34.2989 17.2516C33.9517 17.6197 33.7616 18.1085 33.769 18.6144C33.7764 19.1203 33.9806 19.6035 34.3384 19.9612C34.6962 20.319 35.1793 20.5232 35.6852 20.5306C36.1911 20.538 36.68 20.3479 37.048 20.0007Z" fill="white"/>
</g>
</g>
</svg>
