<svg width="26" height="26" viewBox="0 0 26 26" fill="none" xmlns="http://www.w3.org/2000/svg">
<g id="LinkedIn">
<rect width="26" height="26" rx="13" fill="#0A66C2"/>
<path id="Vector" d="M19.0945 5.85001H6.90572C6.62575 5.85001 6.35725 5.96122 6.15928 6.15919C5.96131 6.35716 5.8501 6.62566 5.8501 6.90562V19.0944C5.8501 19.3744 5.96131 19.6429 6.15928 19.8408C6.35725 20.0388 6.62575 20.15 6.90572 20.15H19.0945C19.3744 20.15 19.6429 20.0388 19.8409 19.8408C20.0389 19.6429 20.1501 19.3744 20.1501 19.0944V6.90562C20.1501 6.62566 20.0389 6.35716 19.8409 6.15919C19.6429 5.96122 19.3744 5.85001 19.0945 5.85001ZM10.1123 18.0318H7.96233V11.2026H10.1123V18.0318ZM9.03582 10.2562C8.79194 10.2548 8.55394 10.1812 8.35184 10.0447C8.14975 9.90821 7.99262 9.7149 7.90029 9.48917C7.80796 9.26344 7.78456 9.01543 7.83305 8.77641C7.88154 8.5374 7.99975 8.31811 8.17275 8.14622C8.34575 7.97432 8.5658 7.85753 8.80511 7.81057C9.04443 7.76362 9.29229 7.78861 9.51742 7.88238C9.74255 7.97616 9.93486 8.13453 10.0701 8.3375C10.2053 8.54047 10.2773 8.77894 10.2771 9.02282C10.2794 9.1861 10.2488 9.34817 10.1872 9.49937C10.1255 9.65057 10.034 9.78781 9.91819 9.9029C9.80236 10.018 9.66453 10.1086 9.51294 10.1693C9.36134 10.23 9.19908 10.2595 9.03582 10.2562ZM18.0369 18.0378H15.8879V14.3069C15.8879 13.2066 15.4202 12.8669 14.8164 12.8669C14.1789 12.8669 13.5532 13.3476 13.5532 14.3347V18.0378H11.4033V11.2075H13.4708V12.1539H13.4986C13.7062 11.7339 14.4331 11.0159 15.5423 11.0159C16.7419 11.0159 18.0379 11.7279 18.0379 13.8133L18.0369 18.0378Z" fill="white"/>
</g>
</svg>
