<svg width="54" height="54" viewBox="0 0 54 54" fill="none" xmlns="http://www.w3.org/2000/svg">
<g id="Twiter">
<circle id="Ellipse 2" cx="27" cy="27" r="27" fill="#55ACEE"/>
<path id="Vector" d="M45 16.3261C43.7129 16.8728 42.3122 17.2663 40.8695 17.4195C42.3674 16.5432 43.4891 15.1588 44.0242 13.5261C42.6186 14.3494 41.0788 14.9268 39.473 15.2326C38.8019 14.526 37.9902 13.9632 37.0885 13.5791C36.1868 13.195 35.2145 12.9979 34.2321 13C30.2572 13 27.0604 16.1728 27.0604 20.0663C27.0604 20.613 27.1278 21.1598 27.2371 21.6858C21.2853 21.3793 15.977 18.5793 12.448 14.2923C11.805 15.3739 11.468 16.6053 11.4722 17.8586C11.4722 20.3107 12.7383 22.4728 14.6689 23.7444C13.5311 23.7003 12.42 23.3923 11.4259 22.8456V22.9326C11.4259 26.3663 13.8908 29.2118 17.1758 29.8663C16.559 30.024 15.9245 30.1048 15.2872 30.1065C14.8203 30.1065 14.3787 30.061 13.9328 29.9988C14.8414 32.7988 17.4871 34.8325 20.6375 34.8988C18.1727 36.8 15.0853 37.9183 11.733 37.9183C11.1315 37.9183 10.5763 37.8976 10 37.8314C13.1799 39.8402 16.9529 41 21.0161 41C34.2068 41 41.4247 30.2391 41.4247 20.8988C41.4247 20.5923 41.4247 20.2858 41.4037 19.9793C42.8001 18.9728 44.0242 17.726 45 16.3261Z" fill="white"/>
</g>
</svg>
